<?xml version="1.0" encoding="utf-8"?>
<!-- Generator: Adobe Illustrator 26.3.1, SVG Export Plug-In . SVG Version: 6.00 Build 0)  -->
<svg version="1.1" xmlns="http://www.w3.org/2000/svg" xmlns:xlink="http://www.w3.org/1999/xlink" x="0px" y="0px"
	 viewBox="0 0 683.01 1000" style="enable-background:new 0 0 683.01 1000;" xml:space="preserve">
<style type="text/css">
	.st0{fill:#FFFFFF;}
	.st1{fill:#FAD912;}
</style>
<g id="Layer_1">
	<rect x="27.22" y="26.69" class="st0" width="634.31" height="280.93"/>
	<rect x="27.22" y="286.42" class="st1" width="634.31" height="634.31"/>
	<path d="M627.89,1.72H55.12C24.73,1.72,0,26.45,0,56.84v842.33c0,30.39,24.73,55.12,55.12,55.12h231.95v45.7h108.87v-45.7h231.95
		c30.39,0,55.12-24.73,55.12-55.12V56.84C683.01,26.45,658.28,1.72,627.89,1.72z M640.61,899.18c0,7-5.72,12.72-12.72,12.72H55.12
		c-7,0-12.72-5.72-12.72-12.72V56.84c0-7,5.72-12.72,12.72-12.72h572.77c7,0,12.72,5.72,12.72,12.72V899.18z"/>
</g>
<g id="Layer_2">
	<g>
		<path d="M78.6,93.33h31c16.98,0,29.07,1.52,36.27,4.55c7.2,3.03,12.99,8.06,17.38,15.1c4.38,7.04,6.58,15.36,6.58,24.97
			c0,10.1-2.42,18.55-7.26,25.34s-12.14,11.93-21.89,15.41l36.41,68.34H145.1l-34.56-65.1h-2.68v65.1H78.6V93.33z M107.86,153.42
			h9.17c9.3,0,15.71-1.22,19.22-3.67c3.51-2.45,5.26-6.5,5.26-12.16c0-3.35-0.87-6.27-2.6-8.75c-1.74-2.48-4.06-4.26-6.98-5.35
			c-2.92-1.08-8.26-1.63-16.04-1.63h-8.02V153.42z"/>
		<path d="M200.86,93.33h83.91v28.63h-54.86v27.79h54.86v28.11h-54.86v40.44h54.86v28.74h-83.91V93.33z"/>
		<path d="M312.14,93.33h83.91v28.63h-54.86v27.79h54.86v28.11h-54.86v40.44h54.86v28.74h-83.91V93.33z"/>
		<path d="M470.22,93.33h29.67l59.12,153.71H528.6l-12.03-31.66h-62.72l-12.5,31.66h-30.41L470.22,93.33z M485.23,134.08
			l-20.62,52.77h41.12L485.23,134.08z"/>
		<path d="M579.54,93.33h29.05v153.71h-29.05V93.33z"/>
	</g>
	<g>
		<path d="M210.27,323.69l54.44,27.22l-58.77,114.06c28.45,0,52.64,10.2,72.58,30.58c19.93,20.39,29.9,45.73,29.9,76
			c0,29.21-10.24,53.98-30.7,74.29c-20.47,20.31-45.15,30.47-74.06,30.47c-30.28,0-55.5-10.53-75.66-31.61
			c-20.16-21.07-30.24-45.23-30.24-72.46c0-10.35,1.56-20.77,4.68-31.27c3.12-10.5,10.31-26.62,21.57-48.39L210.27,323.69z
			 M202.28,525.45c-11.87,0-21.84,4.3-29.9,12.9c-8.07,8.6-12.1,19.36-12.1,32.29c0,12.93,4.22,23.82,12.67,32.64
			c8.44,8.83,18.29,13.24,29.56,13.24c11.87,0,22.06-4.34,30.58-13.01c8.52-8.67,12.78-19.63,12.78-32.87
			c0-12.93-4.15-23.7-12.44-32.29C225.14,529.75,214.76,525.45,202.28,525.45z"/>
		<path d="M466.35,323.69c24.5,0,45.61,6.01,63.34,18.03c17.72,12.02,31.42,30.39,41.08,55.12c9.66,24.73,14.49,59.15,14.49,103.28
			c0,44.58-4.91,79.28-14.72,104.07c-9.81,24.8-23.02,43.02-39.6,54.66c-16.59,11.64-37.51,17.46-62.76,17.46
			c-25.26,0-46.48-5.86-63.68-17.57c-17.2-11.71-30.66-29.52-40.4-53.41c-9.74-23.89-14.61-57.89-14.61-102.02
			c0-61.62,9.51-106.28,28.53-133.97C399.17,338.91,428.61,323.69,466.35,323.69z M467.83,384.4c-10.78,0-20.35,3.46-28.7,10.38
			c-8.35,6.93-14.73,18.83-19.13,35.72c-4.4,16.89-6.6,41.62-6.6,74.18c0,42.45,5.05,71.78,15.14,87.98
			c10.1,16.2,23.19,24.31,39.29,24.31c15.49,0,27.78-7.68,36.9-23.05c11.08-18.56,16.62-49.6,16.62-93.12
			c0-44.12-4.97-74.55-14.92-91.29C496.49,392.77,483.62,384.4,467.83,384.4z"/>
	</g>
	<g>
		<path d="M71.86,731.78h18.98c10.39,0,17.79,1.14,22.2,3.41c4.41,2.28,7.95,6.06,10.64,11.34c2.68,5.28,4.03,11.54,4.03,18.76
			c0,7.59-1.48,13.93-4.45,19.03c-2.96,5.1-7.43,8.96-13.4,11.58l22.29,51.32h-19.58l-21.16-48.89h-1.64v48.89H71.86V731.78z
			 M89.77,776.9h5.61c5.7,0,9.62-0.92,11.76-2.76s3.22-4.88,3.22-9.13c0-2.52-0.53-4.71-1.59-6.57c-1.06-1.86-2.49-3.2-4.27-4.02
			c-1.79-0.81-5.06-1.22-9.82-1.22h-4.91V776.9z"/>
		<path d="M146.7,731.78h51.36v21.5h-33.58v20.88h33.58v21.11h-33.58v30.37h33.58v21.58H146.7V731.78z"/>
		<path d="M301.24,752.06l-12.53,14.65c-8.52-11.05-18.11-16.57-28.76-16.57c-8.99,0-16.56,3.77-22.72,11.31S228,778.29,228,789.34
			c0,7.7,1.36,14.53,4.09,20.5s6.58,10.66,11.57,14.06c4.99,3.4,10.52,5.11,16.62,5.11c5.2,0,9.95-1.19,14.25-3.57
			c4.3-2.38,9.03-6.72,14.19-13l12.14,15.54c-6.95,8.32-13.52,14.09-19.7,17.31c-6.18,3.22-13.24,4.83-21.17,4.83
			c-14.63,0-26.6-5.69-35.92-17.07c-9.32-11.38-13.98-25.96-13.98-43.75c0-11.51,2.12-21.74,6.36-30.69
			c4.24-8.95,10.32-16.14,18.23-21.58c7.91-5.44,16.43-8.16,25.55-8.16c7.76,0,15.23,2.01,22.42,6.03
			C289.84,738.93,296.04,744.65,301.24,752.06z"/>
		<path d="M361.33,728.87c13.31,0,24.76,5.91,34.34,17.74c9.58,11.82,14.37,26.24,14.37,43.24c0,16.85-4.73,31.1-14.18,42.77
			c-9.45,11.67-20.92,17.5-34.4,17.5c-14.12,0-25.86-5.99-35.2-17.97c-9.34-11.98-14.02-26.21-14.02-42.69
			c0-11.04,2.18-21.19,6.53-30.45c4.35-9.26,10.34-16.6,17.95-22.01C344.34,731.58,352.54,728.87,361.33,728.87z M361.14,750.38
			c-8.71,0-16.03,3.72-21.96,11.14c-5.93,7.43-8.9,16.87-8.9,28.33c0,12.77,3.73,22.86,11.21,30.29c5.8,5.81,12.46,8.71,19.98,8.71
			c8.49,0,15.73-3.77,21.71-11.3s8.96-16.82,8.96-27.86c0-10.99-3.01-20.29-9.03-27.9C377.09,754.18,369.76,750.38,361.14,750.38z"
			/>
		<path d="M513.79,750.61l-12.61,15.3c-7.98-10.36-17.29-15.54-27.91-15.54c-9.26,0-17.02,3.77-23.27,11.3
			c-6.25,7.53-9.38,16.69-9.38,27.47c0,11.14,3.24,20.59,9.73,28.33c6.49,7.74,14.49,11.61,24.01,11.61c6.19,0,11.41-1.6,15.66-4.79
			c4.25-3.19,7.67-8.19,10.28-14.99h-27.25v-20.64h47.33l0.13,4.87c0,10.1-2.13,19.67-6.4,28.72c-4.26,9.05-9.79,15.96-16.57,20.72
			s-14.73,7.14-23.86,7.14c-9.77,0-18.48-2.6-26.13-7.81c-7.66-5.2-13.71-12.62-18.17-22.25c-4.46-9.63-6.68-20.01-6.68-31.15
			c0-15.28,4.11-28.57,12.34-39.87c9.76-13.45,22.47-20.17,38.12-20.17c8.19,0,15.84,1.86,22.96,5.57
			C502.15,737.58,508.04,742.97,513.79,750.61z"/>
		<path d="M537.01,731.78h17.18l40.26,75.97v-75.97h17.91v115.44h-17.23l-40.21-75.73v75.73h-17.91V731.78z"/>
	</g>
</g>
</svg>
