<svg width="36" height="38" viewBox="0 0 36 38" fill="none" xmlns="http://www.w3.org/2000/svg">
<path d="M2 16.431V30.0905C2 32.831 2 34.2012 2.82904 35.0705C2.86173 35.1048 2.89523 35.1383 2.92951 35.171C3.79878 36 5.16903 36 7.90953 36H8.81907C10.6883 36 11.6229 36 12.3191 35.5981C12.7751 35.3348 13.1538 34.9561 13.4171 34.5C13.8191 33.8038 13.8191 32.8692 13.8191 31V30.01C13.8191 29.0707 13.8191 28.601 13.9233 28.2159C14.202 27.1868 15.0059 26.3829 16.035 26.1043C16.4201 26 16.8898 26 17.8291 26C18.7684 26 19.2381 26 19.6232 26.1043C20.6523 26.3829 21.4562 27.1868 21.7349 28.2159C21.8391 28.601 21.8391 29.0707 21.8391 30.01V31C21.8391 32.8692 21.8391 33.8038 22.2411 34.5C22.5044 34.9561 22.8831 35.3348 23.3391 35.5981C24.0353 36 24.9699 36 26.8391 36H28.0803C30.9088 36 32.323 36 33.2016 35.1213C34.0803 34.2426 34.0803 32.8284 34.0803 30V16.431C34.0803 14.9916 34.0803 14.2719 33.7759 13.6487C33.4715 13.0255 32.9038 12.5831 31.7684 11.6984L21.7283 3.87412C19.9568 2.49363 19.0711 1.80338 18.0402 1.80338C17.0093 1.80338 16.1235 2.49363 14.3521 3.87412L4.31189 11.6984C3.17654 12.5831 2.60886 13.0255 2.30443 13.6487C2 14.2719 2 14.9916 2 16.431Z" stroke="current" stroke-width="3" stroke-linecap="round" stroke-linejoin="round"/>
</svg>
