<svg width="231" height="46" viewBox="0 0 231 46" fill="none" xmlns="http://www.w3.org/2000/svg">
<path d="M15.1562 29.25V18.0625C17.7188 18.0625 19 17.0833 19 15.125C19 13.3333 18.0208 12.4375 16.0625 12.4375C14.0833 12.4375 13.0938 13.6667 13.0938 16.125V44H0.40625V17.4375C0.40625 14.6875 0.677083 12.4375 1.21875 10.6875C1.78125 8.91667 2.72917 7.27083 4.0625 5.75C5.5625 4.0625 7.4375 2.72917 9.6875 1.75C11.9375 0.770833 14.2604 0.28125 16.6562 0.28125C20.9896 0.28125 24.625 1.73958 27.5625 4.65625C30.5208 7.57292 32 11.1875 32 15.5C32 19.6875 30.6771 23.0833 28.0312 25.6875C25.6146 28.0833 21.9688 29.2812 17.0938 29.2812L15.1562 29.25ZM57.5 0.28125C63.5417 0.28125 68.7188 2.47917 73.0312 6.875C77.3646 11.2708 79.5312 16.5312 79.5312 22.6562C79.5312 28.8854 77.3542 34.1771 73 38.5312C68.6458 42.8854 63.3542 45.0625 57.125 45.0625C50.9375 45.0625 45.6562 42.875 41.2812 38.5C36.9062 34.125 34.7188 28.8438 34.7188 22.6562C34.7188 16.4062 36.9167 11.1146 41.3125 6.78125C45.7292 2.44792 51.125 0.28125 57.5 0.28125ZM57.125 12.8438C54.5208 12.8438 52.3021 13.8021 50.4688 15.7188C48.6354 17.6354 47.7188 19.9479 47.7188 22.6562C47.7188 25.3646 48.6354 27.6771 50.4688 29.5938C52.3229 31.5104 54.5417 32.4688 57.125 32.4688C59.75 32.4688 61.9688 31.5208 63.7812 29.625C65.6146 27.7083 66.5312 25.3854 66.5312 22.6562C66.5312 19.9271 65.6146 17.6146 63.7812 15.7188C61.9688 13.8021 59.75 12.8438 57.125 12.8438ZM84.6562 1.34375H97.3438V26.6875C97.3438 28.6667 97.6562 29.9896 98.2812 30.6562C98.9271 31.3021 100.188 31.625 102.062 31.625H102.719V44H99.3438C94.7188 44 91.1146 42.6562 88.5312 39.9688C85.9479 37.2604 84.6562 33.5104 84.6562 28.7188V1.34375ZM106.156 44V13.25C106.156 9.4375 107.312 6.32292 109.625 3.90625C111.938 1.48958 114.938 0.28125 118.625 0.28125C123 0.28125 126.365 2.29167 128.719 6.3125C130.156 4.14583 131.698 2.60417 133.344 1.6875C134.99 0.75 137.021 0.28125 139.438 0.28125C143.271 0.28125 146.208 1.48958 148.25 3.90625C150.292 6.32292 151.312 9.80208 151.312 14.3438V44H138.625V16.25C138.625 14.875 138.51 13.9688 138.281 13.5312C138.073 13.0729 137.635 12.8438 136.969 12.8438C135.719 12.8438 135.094 13.9062 135.094 16.0312V44H122.406V16.25C122.406 14.8958 122.292 13.9896 122.062 13.5312C121.833 13.0729 121.385 12.8438 120.719 12.8438C119.469 12.8438 118.844 13.9792 118.844 16.25V44H106.156ZM181.781 17.9375V27.4375H173.5C172.375 27.4375 171.573 27.6042 171.094 27.9375C170.635 28.2708 170.406 28.8333 170.406 29.625C170.406 30.5208 170.646 31.1146 171.125 31.4062C171.604 31.6771 172.583 31.8125 174.062 31.8125H182.594V44H172.625C167.938 44 164.354 42.8854 161.875 40.6562C159.396 38.4062 158.156 35.1667 158.156 30.9375V14.2188C158.156 10.1354 159.323 6.96875 161.656 4.71875C164.01 2.46875 167.312 1.34375 171.562 1.34375H182.594V13.5938H174.5C172.312 13.5938 171.219 14.3021 171.219 15.7188C171.219 16.5521 171.479 17.1354 172 17.4688C172.521 17.7812 173.448 17.9375 174.781 17.9375H181.781ZM202.594 13.5938V44H189.906V1.34375H206.438C213.688 1.34375 219.365 2.98958 223.469 6.28125C228.344 10.2188 230.781 15.5625 230.781 22.3125C230.781 28.7708 228.698 34.0417 224.531 38.125C220.365 42.2083 215 44.25 208.438 44.25C207.667 44.25 206.406 44.2083 204.656 44.125V31.5938H206.688C214.083 31.5938 217.781 28.5 217.781 22.3125C217.781 16.5 214.146 13.5938 206.875 13.5938H202.594Z" fill="#0957DE"/>
</svg>
