<svg width="125" height="51" viewBox="0 0 125 51" fill="none" xmlns="http://www.w3.org/2000/svg">
<path fill-rule="evenodd" clip-rule="evenodd" d="M122.512 0.0429688L101.492 46.1614L105.762 46.1191C109.547 46.0819 112.253 45.8789 113.778 45.3336C116.23 44.4562 118.416 42.8457 120.207 40.5358C121.998 38.2247 123.203 35.1014 123.872 31.2035H125L123.37 48.977H84.481L105.675 2.70102H103.201C100.769 2.70102 99.1761 2.79259 98.4007 2.95915C96.952 3.27084 95.5863 3.8792 94.3105 4.80824C93.0354 5.7276 91.9745 6.95123 91.1293 8.48741C90.2923 10.0233 89.6302 11.9643 89.1518 14.3099L88.0037 14.3096L89.1522 0.0429688H122.512V0.0429688Z" fill="#1E5BC0"/>
<path fill-rule="evenodd" clip-rule="evenodd" d="M66.2491 2.83853L66.2757 17.1013L67.2409 15.4091C68.3869 13.9877 68.7482 13.3392 70.368 12.5106C71.9804 11.6859 74.4107 11.4107 76.5029 13.3665C77.2915 14.1036 78.3268 15.7993 78.5448 17.6675C78.7276 19.6208 78.5234 21.1641 77.861 22.9484C77.2105 25.2436 75.0937 27.7988 73.706 29.1895C73.0126 29.8848 71.5338 31.3797 69.5651 32.6818L66.1795 34.9215C66.1899 36.8242 66.1073 35.5903 66.2104 40.6267C66.2635 43.1977 66.2809 43.9736 66.3908 44.659C66.4851 45.2441 66.6073 45.7211 67.3126 46.4053C67.78 46.8585 68.4728 47.5008 69.4162 47.6281H72.2107V48.9682H46.3067V47.6281H47.8635C49.2324 47.6281 50.1574 47.3081 50.8731 46.7205C51.5001 46.2056 51.7807 45.7268 51.9751 44.7945C52.1318 44.0441 52.1999 43.1078 52.2033 40.659L52.2493 8.78424C52.2524 6.05276 52.2229 4.53316 52.0147 3.90148C51.7959 3.23662 51.4936 2.79741 50.7641 2.15726C50.1236 1.59452 49.188 1.35591 47.8628 1.35591H46.3067V0.0151367H85.8249V14.063H84.5123C84.2863 10.7494 83.5138 8.34952 82.2511 6.70051C80.9892 5.05305 79.261 3.95815 76.9449 3.33649C75.4547 2.93633 72.392 2.82748 68.6397 2.83473L66.2491 2.83853V2.83853ZM58.2698 11.9451C60.0106 11.5976 62.1164 11.9494 63.5137 13.6711C64.1651 14.4734 65.6244 16.0324 66.2816 17.6301L66.1862 34.9151C62.8639 33.2946 56.8323 28.6607 54.6957 23.9168C53.786 21.8963 53.3494 19.6619 53.8041 16.9735C54.2209 14.5105 56.2243 12.3534 58.2698 11.9451V11.9451Z" fill="#1E5BC0"/>
<path fill-rule="evenodd" clip-rule="evenodd" d="M17.5411 0L35.9743 26.3228V9.31543C35.9743 6.37644 35.6188 4.38619 34.885 3.35469C33.8891 1.95535 32.202 1.28462 29.8477 1.34008V0H43.8624V1.33991C42.0683 1.59873 40.8592 1.94066 40.2503 2.3657C39.6342 2.79074 39.1533 3.47495 38.809 4.42662C38.4651 5.37847 38.2965 7.00519 38.2965 9.31577L38.297 50.0714H37.2317L8.54518 10.4686V40.4327C8.54518 43.2508 9.1017 45.1507 10.2187 46.1348C11.3359 47.119 12.6133 47.6135 14.0467 47.6135L15.0484 47.6131V48.9532H0.000346029V47.6131C2.33875 47.595 3.96426 47.0405 4.88518 45.9591C5.79884 44.8779 6.26275 43.0295 6.26275 40.4327L6.2631 5.88678L5.35013 4.58368C4.45306 3.28973 3.65965 2.43067 2.97112 2.02377C2.28242 1.6167 1.29723 1.38621 0 1.34008L0.000346029 0H17.5411V0Z" fill="#1E5BC0"/>
</svg>
