<svg width="25" height="29" viewBox="0 0 25 29" fill="none" xmlns="http://www.w3.org/2000/svg">
<mask id="path-1-inside-1_724_177" fill="white">
<path fill-rule="evenodd" clip-rule="evenodd" d="M19.7195 9.42957C16.995 9.32659 14.8178 7.08532 14.8178 4.33553C14.8178 3.91723 14.8682 3.5107 14.9632 3.12167C14.2076 2.74399 13.3905 2.4711 12.5309 2.32205V1.52456V1.52441C12.5309 0.68249 11.8483 0 11.0064 0C10.1644 0 9.48191 0.68249 9.48183 1.52441V1.52456V2.32206C5.46644 3.01833 2.37774 6.41715 2.15749 10.5767H2.14495V11.0277L2.14492 11.0529L2.14495 11.0781V17.5296C1.55689 17.6553 1.00334 17.9774 0.592133 18.4958C-0.693988 20.1174 0.247145 22.4401 2.14495 22.8343V22.8685H2.34733C2.4671 22.8841 2.59026 22.8922 2.71653 22.8922C2.84281 22.8922 2.96597 22.8841 3.08574 22.8685H19.1176C19.2374 22.8841 19.3605 22.8922 19.4868 22.8922C19.6131 22.8922 19.7362 22.8841 19.856 22.8685H19.8679V22.8669C21.8918 22.5937 22.9397 20.1708 21.6112 18.4958C21.1558 17.9217 20.5259 17.5884 19.8679 17.4959V10.5767H19.8553C19.8347 10.1871 19.7889 9.80422 19.7195 9.42957Z"/>
</mask>
<path d="M19.7195 9.42957L21.3911 9.12011L21.1434 7.78218L19.7837 7.73079L19.7195 9.42957ZM14.9632 3.12167L16.6146 3.52506L16.9365 2.20748L15.7233 1.60105L14.9632 3.12167ZM12.5309 2.32205H10.8309V3.75265L12.2405 3.99706L12.5309 2.32205ZM12.5309 1.52441L14.2309 1.52441L14.2309 1.52426L12.5309 1.52441ZM9.48183 1.52441L7.78183 1.52426V1.52441H9.48183ZM9.48183 2.32206L9.77228 3.99706L11.1818 3.75264V2.32206H9.48183ZM2.15749 10.5767V12.2767H3.76986L3.85511 10.6666L2.15749 10.5767ZM2.14495 10.5767V8.87672H0.444951V10.5767H2.14495ZM2.14495 11.0277L3.84495 11.03V11.0277H2.14495ZM2.14492 11.0529L0.444911 11.0505L0.444917 11.0553L2.14492 11.0529ZM2.14495 11.0781L3.84495 11.0781L3.84495 11.0757L2.14495 11.0781ZM2.14495 17.5296L2.50026 19.1921L3.84495 18.9047V17.5296H2.14495ZM0.592133 18.4958L1.92406 19.5522L1.92406 19.5522L0.592133 18.4958ZM2.14495 22.8343H3.84495V21.4512L2.49074 21.1699L2.14495 22.8343ZM2.14495 22.8685H0.444951V24.5685H2.14495V22.8685ZM2.34733 22.8685L2.5674 21.1828L2.45783 21.1685H2.34733V22.8685ZM3.08574 22.8685V21.1685H2.97524L2.86567 21.1828L3.08574 22.8685ZM19.1176 22.8685L19.3377 21.1828L19.2281 21.1685H19.1176V22.8685ZM19.856 22.8685V21.1685H19.7455L19.6359 21.1828L19.856 22.8685ZM19.8679 22.8685V24.5685H21.5679V22.8685H19.8679ZM19.8679 22.8669L19.6405 21.1822L18.1679 21.3809V22.8669H19.8679ZM21.6112 18.4958L22.9431 17.4394L22.9431 17.4394L21.6112 18.4958ZM19.8679 17.4959H18.1679V18.9737L19.6313 19.1794L19.8679 17.4959ZM19.8679 10.5767H21.5679V8.87672H19.8679V10.5767ZM19.8553 10.5767L18.1577 10.6666L18.2429 12.2767H19.8553V10.5767ZM13.1178 4.33553C13.1178 8.0027 16.021 10.991 19.6553 11.1284L19.7837 7.73079C17.9689 7.66219 16.5178 6.16794 16.5178 4.33553H13.1178ZM13.3117 2.71827C13.1847 3.23832 13.1178 3.78026 13.1178 4.33553H16.5178C16.5178 4.0542 16.5516 3.78307 16.6146 3.52506L13.3117 2.71827ZM12.2405 3.99706C12.9341 4.11733 13.5932 4.33744 14.2031 4.64228L15.7233 1.60105C14.822 1.15053 13.8469 0.824865 12.8214 0.647049L12.2405 3.99706ZM10.8309 1.52456V2.32205H14.2309V1.52456H10.8309ZM10.8309 1.52441V1.52456H14.2309V1.52441H10.8309ZM11.0064 1.7C10.9095 1.7 10.831 1.62146 10.8309 1.52457L14.2309 1.52426C14.2308 -0.256481 12.7872 -1.7 11.0064 -1.7V1.7ZM11.1818 1.52457C11.1818 1.62146 11.1033 1.7 11.0064 1.7V-1.7C9.22562 -1.7 7.78199 -0.256482 7.78183 1.52426L11.1818 1.52457ZM11.1818 1.52456V1.52441H7.78183V1.52456H11.1818ZM11.1818 2.32206V1.52456H7.78183V2.32206H11.1818ZM3.85511 10.6666C4.03293 7.30831 6.52897 4.55946 9.77228 3.99706L9.19138 0.647054C4.40392 1.47721 0.722541 5.52598 0.459869 10.4868L3.85511 10.6666ZM2.14495 12.2767H2.15749V8.87672H2.14495V12.2767ZM3.84495 11.0277V10.5767H0.444951V11.0277H3.84495ZM3.84491 11.0553L3.84495 11.03L0.444953 11.0253L0.444917 11.0505L3.84491 11.0553ZM3.84495 11.0757L3.84491 11.0505L0.444917 11.0553L0.444953 11.0805L3.84495 11.0757ZM3.84495 17.5296V11.0781H0.444951V17.5296H3.84495ZM1.92406 19.5522C2.08034 19.3552 2.2828 19.2385 2.50026 19.1921L1.78964 15.8672C0.83098 16.0721 -0.0736613 16.5996 -0.739798 17.4394L1.92406 19.5522ZM2.49074 21.1699C1.78707 21.0237 1.45237 20.1469 1.92406 19.5522L-0.739797 17.4394C-2.84035 20.0879 -1.29278 23.8564 1.79917 24.4988L2.49074 21.1699ZM3.84495 22.8685V22.8343H0.444951V22.8685H3.84495ZM2.34733 21.1685H2.14495V24.5685H2.34733V21.1685ZM2.71653 21.1922C2.66324 21.1922 2.61359 21.1888 2.5674 21.1828L2.12725 24.5542C2.3206 24.5794 2.51728 24.5922 2.71653 24.5922V21.1922ZM2.86567 21.1828C2.81948 21.1888 2.76983 21.1922 2.71653 21.1922V24.5922C2.91579 24.5922 3.11247 24.5794 3.30582 24.5542L2.86567 21.1828ZM19.1176 21.1685H3.08574V24.5685H19.1176V21.1685ZM19.4868 21.1922C19.4335 21.1922 19.3839 21.1888 19.3377 21.1828L18.8975 24.5542C19.0909 24.5794 19.2875 24.5922 19.4868 24.5922V21.1922ZM19.6359 21.1828C19.5897 21.1888 19.5401 21.1922 19.4868 21.1922V24.5922C19.686 24.5922 19.8827 24.5794 20.0761 24.5542L19.6359 21.1828ZM19.8679 21.1685H19.856V24.5685H19.8679V21.1685ZM18.1679 22.8669V22.8685H21.5679V22.8669H18.1679ZM20.2793 19.5522C20.7693 20.1701 20.3887 21.0812 19.6405 21.1822L20.0953 24.5516C23.395 24.1062 25.11 20.1715 22.9431 17.4394L20.2793 19.5522ZM19.6313 19.1794C19.8771 19.2139 20.1072 19.3353 20.2793 19.5522L22.9431 17.4394C22.2045 16.5082 21.1748 15.9629 20.1045 15.8125L19.6313 19.1794ZM18.1679 10.5767V17.4959H21.5679V10.5767H18.1679ZM19.8553 12.2767H19.8679V8.87672H19.8553V12.2767ZM18.0479 9.73904C18.1039 10.0414 18.141 10.351 18.1577 10.6666L21.5529 10.4868C21.5284 10.0233 21.4739 9.567 21.3911 9.12011L18.0479 9.73904Z" fill="#676868" mask="url(#path-1-inside-1_724_177)"/>
<circle cx="20.2053" cy="4.57374" r="4.00196" fill="#FF9F10"/>
<path d="M15.3895 24.1323C15.3895 24.6891 15.2799 25.2405 15.0668 25.7549C14.8537 26.2694 14.5413 26.7368 14.1476 27.1305C13.7539 27.5243 13.2864 27.8366 12.772 28.0497C12.2576 28.2628 11.7062 28.3724 11.1494 28.3724C10.5925 28.3724 10.0412 28.2628 9.52671 28.0497C9.01227 27.8366 8.54483 27.5243 8.1511 27.1305C7.75736 26.7368 7.44503 26.2694 7.23194 25.7549C7.01885 25.2405 6.90918 24.6891 6.90918 24.1323L11.1494 24.1323H15.3895Z" fill="#676868"/>
</svg>
