<svg width="34" height="40" viewBox="0 0 34 40" fill="none" xmlns="http://www.w3.org/2000/svg">
<path d="M25.7199 11C25.7199 16.287 21.5642 20.5 16.5265 20.5C11.4887 20.5 7.33301 16.287 7.33301 11C7.33301 5.71305 11.4887 1.5 16.5265 1.5C21.5642 1.5 25.7199 5.71305 25.7199 11Z" stroke="current" stroke-width="3"/>
<path d="M31.5525 33.5C31.5525 33.8425 31.382 34.3274 30.7323 34.9316C30.0805 35.5378 29.0554 36.1526 27.663 36.7003C24.8873 37.792 20.9505 38.5 16.5262 38.5C12.102 38.5 8.16512 37.792 5.38945 36.7003C3.99709 36.1526 2.972 35.5378 2.32017 34.9316C1.67043 34.3274 1.5 33.8425 1.5 33.5C1.5 33.1575 1.67043 32.6726 2.32017 32.0684C2.972 31.4622 3.99709 30.8473 5.38945 30.2997C8.16512 29.208 12.102 28.5 16.5262 28.5C20.9505 28.5 24.8873 29.208 27.663 30.2997C29.0554 30.8473 30.0805 31.4622 30.7323 32.0684C31.382 32.6726 31.5525 33.1575 31.5525 33.5Z" stroke="current" stroke-width="3"/>
</svg>
