<svg width="36" height="36" viewBox="0 0 36 36" fill="none" xmlns="http://www.w3.org/2000/svg">
<path fill-rule="evenodd" clip-rule="evenodd" d="M24.3019 13.1386C24.3019 18.6309 19.6425 23.2772 13.651 23.2772C7.6594 23.2772 3 18.6309 3 13.1386C3 7.64635 7.6594 3 13.651 3C19.6425 3 24.3019 7.64635 24.3019 13.1386ZM21.769 23.7025C19.5001 25.3204 16.6916 26.2772 13.651 26.2772C6.11174 26.2772 0 20.3949 0 13.1386C0 5.88236 6.11174 0 13.651 0C21.1902 0 27.3019 5.88236 27.3019 13.1386C27.3019 16.3642 26.0943 19.3183 24.0904 21.6048C24.5307 21.654 24.9576 21.8411 25.2954 22.1662L35.3651 31.858C36.161 32.6239 36.161 33.8658 35.3651 34.6318L35.3149 34.6801C34.5191 35.4461 33.2288 35.4461 32.4329 34.6801L22.3632 24.9884C21.992 24.6311 21.7939 24.1703 21.769 23.7025Z" fill="current"/>
</svg>
