<svg width="42" height="42" viewBox="0 0 42 42" fill="none" xmlns="http://www.w3.org/2000/svg">
<path d="M21 3.08008C16.1332 3.08008 15.5229 3.10071 13.6116 3.18792C11.7042 3.27498 10.4015 3.57787 9.26163 4.02089C8.08323 4.47884 7.08388 5.09159 6.08766 6.08781C5.09144 7.08403 4.4787 8.08338 4.02074 9.26178C3.57772 10.4016 3.27484 11.7043 3.18777 13.6116C3.10056 15.523 3.08 16.1333 3.08 21.0001C3.08 25.8668 3.10056 26.477 3.18777 28.3884C3.27484 30.2958 3.57772 31.5984 4.02074 32.7383C4.4787 33.9167 5.09144 34.916 6.08766 35.9123C7.08388 36.9085 8.08323 37.5213 9.26163 37.9792C10.4015 38.4222 11.7042 38.7251 13.6116 38.8121C15.5229 38.8993 16.1332 38.92 21 38.92C25.8667 38.92 26.477 38.8993 28.3883 38.8121C30.2957 38.7251 31.5983 38.4222 32.7382 37.9792C33.9166 37.5213 34.9159 36.9085 35.9122 35.9123C36.9084 34.916 37.5212 33.9167 37.9791 32.7383C38.4221 31.5984 38.725 30.2958 38.812 28.3884C38.8993 26.477 38.9199 25.8668 38.9199 21.0001C38.9199 16.1333 38.8993 15.523 38.812 13.6116C38.725 11.7043 38.4221 10.4016 37.9791 9.26178C37.5212 8.08338 36.9084 7.08403 35.9122 6.08781C34.9159 5.09159 33.9166 4.47884 32.7382 4.02089C31.5983 3.57787 30.2957 3.27498 28.3883 3.18792C26.477 3.10071 25.8667 3.08008 21 3.08008ZM21 6.30896C25.7848 6.30896 26.3515 6.32717 28.2411 6.41338C29.9883 6.49313 30.9372 6.78506 31.5686 7.0304C32.4051 7.35547 33.002 7.74386 33.6291 8.3709C34.2562 8.99794 34.6445 9.59496 34.9696 10.4313C35.215 11.0628 35.5069 12.0116 35.5866 13.7588C35.6728 15.6484 35.6911 16.2152 35.6911 21.0001C35.6911 25.7848 35.6728 26.3516 35.5866 28.2412C35.5069 29.9884 35.215 30.9372 34.9696 31.5687C34.6445 32.4051 34.2562 33.0021 33.6291 33.6291C33.002 34.2562 32.4051 34.6446 31.5686 34.9696C30.9372 35.215 29.9883 35.507 28.2411 35.5866C26.3518 35.6729 25.7851 35.6911 21 35.6911C16.2148 35.6911 15.6481 35.6729 13.7587 35.5866C12.0116 35.507 11.0627 35.215 10.4313 34.9696C9.59482 34.6446 8.99787 34.2562 8.37075 33.6291C7.74371 33.0021 7.35533 32.4051 7.03032 31.5687C6.78491 30.9372 6.49298 29.9884 6.41324 28.2412C6.32702 26.3516 6.30881 25.7848 6.30881 21.0001C6.30881 16.2152 6.32702 15.6484 6.41324 13.7588C6.49298 12.0116 6.78491 11.0628 7.03032 10.4313C7.35533 9.59496 7.74371 8.99794 8.37075 8.3709C8.99787 7.74386 9.59482 7.35547 10.4313 7.0304C11.0627 6.78506 12.0116 6.49313 13.7587 6.41338C15.6483 6.32717 16.2151 6.30896 21 6.30896Z" fill="#1E5BC0"/>
<path d="M21 26.9733C17.701 26.9733 15.0266 24.299 15.0266 21C15.0266 17.701 17.701 15.0267 21 15.0267C24.2989 15.0267 26.9733 17.701 26.9733 21C26.9733 24.299 24.2989 26.9733 21 26.9733ZM21 11.7979C15.9177 11.7979 11.7978 15.9178 11.7978 21C11.7978 26.0822 15.9177 30.2021 21 30.2021C26.0822 30.2021 30.2021 26.0822 30.2021 21C30.2021 15.9178 26.0822 11.7979 21 11.7979Z" fill="#1E5BC0"/>
<path d="M32.7161 11.4345C32.7161 12.6222 31.7533 13.5849 30.5656 13.5849C29.3781 13.5849 28.4153 12.6222 28.4153 11.4345C28.4153 10.2469 29.3781 9.28418 30.5656 9.28418C31.7533 9.28418 32.7161 10.2469 32.7161 11.4345Z" fill="#1E5BC0"/>
</svg>
