<svg width="36" height="40" viewBox="0 0 36 40" fill="current" xmlns="http://www.w3.org/2000/svg">
<path fill-rule="evenodd" clip-rule="evenodd" d="M32.831 17.9155V21.3899C32.831 26.1835 32.7979 27.9095 32.3933 29.2317C31.4211 32.4088 28.9344 34.8955 25.7573 35.8677C24.4351 36.2724 22.7091 36.3055 17.9155 36.3055C13.1219 36.3055 11.396 36.2724 10.0737 35.8677C6.89668 34.8955 4.40998 32.4088 3.43773 29.2317C3.0331 27.9095 3 26.1835 3 21.3899V17.9155C3 13.1219 3.0331 11.396 3.43773 10.0737C4.40998 6.89668 6.89668 4.40998 10.0737 3.43773C11.396 3.0331 13.1219 3 17.9155 3C22.7091 3 24.4351 3.0331 25.7573 3.43773C28.9344 4.40998 31.4211 6.89668 32.3933 10.0737C32.7979 11.396 32.831 13.1219 32.831 17.9155ZM0 17.9155C0 13.3421 0 11.0554 0.569052 9.19585C1.83297 5.06569 5.06569 1.83297 9.19585 0.569052C11.0554 0 13.3421 0 17.9155 0C22.489 0 24.7757 0 26.6352 0.569052C30.7654 1.83297 33.9981 5.06569 35.262 9.19585C35.831 11.0554 35.831 13.3421 35.831 17.9155V21.3899C35.831 25.9634 35.831 28.2501 35.262 30.1096C33.9981 34.2398 30.7654 37.4725 26.6352 38.7364C24.7757 39.3055 22.489 39.3055 17.9155 39.3055C13.3421 39.3055 11.0554 39.3055 9.19585 38.7364C5.06569 37.4725 1.83297 34.2398 0.569052 30.1096C0 28.2501 0 25.9634 0 21.3899V17.9155ZM7.28568 10.125C6.81377 10.125 6.43121 10.5076 6.43121 10.9795C6.43121 11.4514 6.81377 11.8339 7.28568 11.8339H18.1176C18.5895 11.8339 18.9721 11.4514 18.9721 10.9795C18.9721 10.5076 18.5895 10.125 18.1176 10.125H7.28568ZM6.43121 19.5244C6.43121 19.0525 6.81377 18.6699 7.28568 18.6699H21.7007C22.1726 18.6699 22.5552 19.0525 22.5552 19.5244C22.5552 19.9963 22.1726 20.3789 21.7007 20.3789H7.28568C6.81377 20.3789 6.43121 19.9963 6.43121 19.5244ZM7.28568 27.2148C6.81377 27.2148 6.43121 27.5974 6.43121 28.0693C6.43121 28.5412 6.81377 28.9238 7.28568 28.9238H21.7007C22.1726 28.9238 22.5552 28.5412 22.5552 28.0693C22.5552 27.5974 22.1726 27.2148 21.7007 27.2148H7.28568Z" fill="curennt"/>
</svg>
