<svg width="27" height="26" viewBox="0 0 27 26" fill="none" xmlns="http://www.w3.org/2000/svg">
<path fill-rule="evenodd" clip-rule="evenodd" d="M19.5 11C19.5 15.6944 15.6944 19.5 11 19.5C6.30558 19.5 2.5 15.6944 2.5 11C2.5 6.30558 6.30558 2.5 11 2.5C15.6944 2.5 19.5 6.30558 19.5 11ZM17.9376 19.5369C16.0449 21.0768 13.6302 22 11 22C4.92487 22 0 17.0751 0 11C0 4.92487 4.92487 0 11 0C17.0751 0 22 4.92487 22 11C22 13.4713 21.1851 15.7522 19.8093 17.5887L25.8621 23.0498C26.4158 23.5493 26.4596 24.403 25.9601 24.9567C25.4606 25.5103 24.6069 25.5542 24.0532 25.0547L17.9376 19.5369Z" fill="#676868"/>
</svg>
