<svg width="32" height="32" viewBox="0 0 32 32" fill="none" xmlns="http://www.w3.org/2000/svg">
<mask id="path-1-inside-1_724_165" fill="white">
<path fill-rule="evenodd" clip-rule="evenodd" d="M12.7296 2.33137C12.8739 1.00489 13.9941 0 15.3284 0H16.9209C18.2437 0 19.3542 0.996233 19.4973 2.31128L19.5814 3.08459C19.6444 3.6634 20.0574 4.14053 20.6032 4.34344V4.34344C21.1074 4.53093 21.6749 4.46482 22.0957 4.1297L23.1066 3.32469C24.2951 2.37826 26.0035 2.46973 27.0842 3.53764L27.8931 4.3371C28.8713 5.30376 28.9546 6.85553 28.0855 7.92134L27.874 8.18079C27.2742 8.91624 27.2282 9.94018 27.6305 10.7997V10.7997C27.9964 11.5813 28.7087 12.1786 29.5669 12.2698L29.7595 12.2902C31.0334 12.4256 32 13.5003 32 14.7814V16.6812C32 17.8387 31.1267 18.8098 29.9756 18.9321V18.9321C29.0345 19.0321 28.2737 19.7153 27.9247 20.5949C27.9112 20.629 27.8975 20.663 27.8837 20.6969C27.5054 21.6264 27.5723 22.7068 28.2065 23.4845L28.3142 23.6166C29.1836 24.6828 29.1003 26.2352 28.1217 27.2022L27.2331 28.0803C26.1983 29.103 24.5623 29.1906 23.4241 28.2842L23.0034 27.9492C22.376 27.4496 21.5258 27.3749 20.7783 27.6655V27.6655C19.992 27.9712 19.3807 28.6548 19.2894 29.4934L19.257 29.7912C19.1203 31.048 18.059 32 16.7949 32H15.1163C13.7723 32 12.644 30.9878 12.4987 29.6517L12.4578 29.2765C12.3696 28.4654 11.7971 27.7949 11.0494 27.4685V27.4685C10.2765 27.131 9.37475 27.1882 8.71508 27.7135L8.40471 27.9607C7.35924 28.7932 5.85643 28.7128 4.90582 27.7734L3.93307 26.8121C2.91848 25.8095 2.8321 24.1999 3.73354 23.0945L4.17002 22.5592C4.60031 22.0315 4.66863 21.3067 4.41309 20.6756V20.6756C4.1543 20.0365 3.58807 19.5511 2.90239 19.4782L2.31988 19.4163C1.0008 19.2761 0 18.1634 0 16.8368V15.2936C0 13.9787 0.992049 12.8757 2.2996 12.7367L2.65965 12.6985C3.47743 12.6116 4.14958 12.0278 4.46696 11.2691V11.2691C4.78757 10.5027 4.7201 9.61497 4.1951 8.97114L3.7142 8.3814C2.73708 7.18311 2.83072 5.43846 3.93049 4.35165L4.52507 3.76408C5.60572 2.69616 7.31411 2.6047 8.50261 3.55113L9.34699 4.22354C9.91816 4.67837 10.6939 4.74561 11.3708 4.47201V4.47201C12.0635 4.19203 12.5937 3.58064 12.6745 2.83789L12.7296 2.33137ZM16.1909 22.8572C20.0232 22.8572 23.1298 19.7871 23.1298 16C23.1298 12.2129 20.0232 9.14282 16.1909 9.14282C12.3586 9.14282 9.25192 12.2129 9.25192 16C9.25192 19.7871 12.3586 22.8572 16.1909 22.8572Z"/>
</mask>
<path d="M12.6745 2.83789L10.7856 2.63236L12.6745 2.83789ZM8.50261 3.55113L7.31902 5.03744L8.50261 3.55113ZM3.7142 8.3814L2.2417 9.58212L3.7142 8.3814ZM4.1951 8.97114L2.7226 10.1719L4.1951 8.97114ZM2.65965 12.6985L2.86041 14.5878L2.65965 12.6985ZM2.31988 19.4163L2.11912 21.3057L2.31988 19.4163ZM2.90239 19.4782L2.70163 21.3676L2.90239 19.4782ZM4.90582 27.7734L3.5703 29.1248L4.90582 27.7734ZM8.71508 27.7135L9.89867 29.1999L8.71508 27.7135ZM12.4578 29.2765L10.569 29.482L12.4578 29.2765ZM19.257 29.7912L17.3682 29.5857L19.257 29.7912ZM19.2894 29.4934L21.1783 29.6989L19.2894 29.4934ZM23.0034 27.9492L21.8198 29.4355L23.0034 27.9492ZM28.3142 23.6166L26.8417 24.8173L28.3142 23.6166ZM27.9247 20.5949L29.6908 21.2956L27.9247 20.5949ZM29.7595 12.2902L29.5587 14.1796L29.7595 12.2902ZM27.874 8.18079L26.4015 6.98006L27.874 8.18079ZM23.1066 3.32469L24.2902 4.811L23.1066 3.32469ZM22.0957 4.1297L20.9121 2.64339L22.0957 4.1297ZM19.5814 3.08459L21.4703 2.87906L19.5814 3.08459ZM16.9209 -1.9H15.3284V1.9H16.9209V-1.9ZM21.4703 2.87906L21.3861 2.10576L17.6084 2.51681L17.6926 3.29011L21.4703 2.87906ZM21.923 1.83838L20.9121 2.64339L23.2793 5.61601L24.2902 4.811L21.923 1.83838ZM29.2287 2.98565L28.4197 2.1862L25.7486 4.88908L26.5576 5.68854L29.2287 2.98565ZM29.3465 9.38152L29.558 9.12207L26.613 6.72061L26.4015 6.98006L29.3465 9.38152ZM29.9602 10.4009L29.7677 10.3804L29.3662 14.1591L29.5587 14.1796L29.9602 10.4009ZM33.9 16.6812V14.7814H30.1V16.6812H33.9ZM29.6435 21.4133C29.6594 21.3741 29.6752 21.3349 29.6908 21.2956L26.1586 19.8943C26.1472 19.9231 26.1356 19.9519 26.1239 19.9805L29.6435 21.4133ZM29.7867 22.4159L29.679 22.2838L26.734 24.6852L26.8417 24.8173L29.7867 22.4159ZM28.5686 29.4318L29.4572 28.5536L26.7862 25.8507L25.8976 26.7289L28.5686 29.4318ZM21.8198 29.4355L22.2406 29.7706L24.6077 26.7979L24.187 26.4629L21.8198 29.4355ZM21.1459 29.9968L21.1783 29.6989L17.4006 29.2879L17.3682 29.5857L21.1459 29.9968ZM15.1163 33.9H16.7949V30.1H15.1163V33.9ZM10.569 29.482L10.6098 29.8573L14.3875 29.4462L14.3467 29.071L10.569 29.482ZM9.5883 29.447L9.89867 29.1999L7.53149 26.2272L7.22112 26.4744L9.5883 29.447ZM2.59756 28.1635L3.5703 29.1248L6.24134 26.4219L5.26859 25.4607L2.59756 28.1635ZM2.69752 21.3585L2.26104 21.8938L5.20603 24.2952L5.64252 23.7599L2.69752 21.3585ZM2.11912 21.3057L2.70163 21.3676L3.10316 17.5888L2.52065 17.5269L2.11912 21.3057ZM-1.9 15.2936V16.8368H1.9V15.2936H-1.9ZM2.45888 10.8091L2.09884 10.8474L2.50037 14.6261L2.86041 14.5878L2.45888 10.8091ZM2.2417 9.58212L2.7226 10.1719L5.66759 7.77041L5.1867 7.18067L2.2417 9.58212ZM3.18956 2.41264L2.59498 3.00021L5.26601 5.70309L5.86059 5.11552L3.18956 2.41264ZM10.5306 2.73723L9.6862 2.06482L7.31902 5.03744L8.1634 5.70985L10.5306 2.73723ZM10.8408 2.12584L10.7856 2.63236L14.5633 3.04341L14.6185 2.53689L10.8408 2.12584ZM21.2298 16C21.2298 18.7166 18.9951 20.9572 16.1909 20.9572V24.7572C21.0512 24.7572 25.0298 20.8576 25.0298 16H21.2298ZM16.1909 11.0428C18.9951 11.0428 21.2298 13.2834 21.2298 16H25.0298C25.0298 11.1424 21.0512 7.24282 16.1909 7.24282V11.0428ZM11.1519 16C11.1519 13.2834 13.3866 11.0428 16.1909 11.0428V7.24282C11.3306 7.24282 7.35192 11.1424 7.35192 16H11.1519ZM16.1909 20.9572C13.3866 20.9572 11.1519 18.7166 11.1519 16H7.35192C7.35192 20.8576 11.3306 24.7572 16.1909 24.7572V20.9572ZM12.0828 6.23356C13.3193 5.73379 14.3953 4.58797 14.5633 3.04341L10.7856 2.63236C10.7883 2.60797 10.7973 2.60617 10.7805 2.62669C10.7608 2.65076 10.7201 2.68571 10.6589 2.71045L12.0828 6.23356ZM8.1634 5.70985C9.34176 6.64821 10.8597 6.72791 12.0828 6.23356L10.6589 2.71045C10.6014 2.73367 10.5555 2.73554 10.5322 2.7329C10.513 2.73075 10.5184 2.72755 10.5306 2.73723L8.1634 5.70985ZM5.86059 5.11552C6.25682 4.72395 6.88324 4.69042 7.31902 5.03744L9.6862 2.06482C7.74499 0.518988 4.95462 0.668376 3.18956 2.41264L5.86059 5.11552ZM5.1867 7.18067C4.82842 6.7413 4.86276 6.10159 5.26601 5.70309L2.59498 3.00021C0.798683 4.77533 0.645736 7.62493 2.2417 9.58212L5.1867 7.18067ZM6.21977 12.0024C6.76656 10.6953 6.70417 9.04159 5.66759 7.77041L2.7226 10.1719C2.73466 10.1867 2.75241 10.2152 2.75882 10.2754C2.76578 10.3407 2.75693 10.4336 2.71415 10.5358L6.21977 12.0024ZM2.86041 14.5878C4.48562 14.4151 5.68386 13.2834 6.21977 12.0024L2.71415 10.5358C2.6708 10.6395 2.60865 10.7158 2.55333 10.7607C2.5019 10.8024 2.46962 10.808 2.45888 10.8091L2.86041 14.5878ZM1.9 15.2936C1.9 14.9503 2.159 14.6624 2.50037 14.6261L2.09884 10.8474C-0.174902 11.089 -1.9 13.0071 -1.9 15.2936H1.9ZM2.52065 17.5269C2.16775 17.4894 1.9 17.1917 1.9 16.8368H-1.9C-1.9 19.135 -0.166153 21.0628 2.11912 21.3057L2.52065 17.5269ZM6.1742 19.9625C5.69215 18.772 4.58594 17.7464 3.10316 17.5888L2.70163 21.3676C2.67868 21.3651 2.65861 21.3593 2.6435 21.3528C2.62902 21.3466 2.62223 21.3412 2.62169 21.3408C2.62134 21.3405 2.62583 21.3441 2.6325 21.3532C2.63916 21.3623 2.64617 21.3743 2.65197 21.3887L6.1742 19.9625ZM5.64252 23.7599C6.56699 22.6262 6.65503 21.1501 6.1742 19.9625L2.65197 21.3887C2.65745 21.4022 2.66017 21.4138 2.66133 21.4222C2.66249 21.4306 2.66181 21.4337 2.66214 21.431C2.66249 21.428 2.66404 21.4186 2.66991 21.4044C2.676 21.3897 2.6853 21.3735 2.69752 21.3585L5.64252 23.7599ZM5.26859 25.4607C4.95052 25.1463 4.92344 24.6418 5.20603 24.2952L2.26104 21.8938C0.740754 23.7581 0.886448 26.4726 2.59756 28.1635L5.26859 25.4607ZM7.22112 26.4744C6.92836 26.7075 6.50753 26.685 6.24134 26.4219L3.5703 29.1248C5.20533 30.7406 7.79012 30.879 9.5883 29.447L7.22112 26.4744ZM11.8097 25.7272C10.4958 25.1535 8.82537 25.1969 7.53149 26.2272L9.89867 29.1999C9.91813 29.1844 9.95181 29.1653 10.0165 29.1592C10.0863 29.1527 10.1835 29.1636 10.2891 29.2097L11.8097 25.7272ZM14.3467 29.071C14.1723 27.4688 13.0691 26.2771 11.8097 25.7272L10.2891 29.2097C10.3933 29.2552 10.4705 29.3192 10.5167 29.377C10.56 29.4311 10.5673 29.4671 10.569 29.482L14.3467 29.071ZM15.1163 30.1C14.7421 30.1 14.428 29.8182 14.3875 29.4462L10.6098 29.8573C10.8601 32.1575 12.8025 33.9 15.1163 33.9V30.1ZM17.3682 29.5857C17.3363 29.8783 17.0892 30.1 16.7949 30.1V33.9C19.0288 33.9 20.9042 32.2176 21.1459 29.9968L17.3682 29.5857ZM20.0898 25.8947C18.7636 26.4103 17.5816 27.6241 17.4006 29.2879L21.1783 29.6989C21.1796 29.6865 21.186 29.652 21.2307 29.5985C21.2788 29.541 21.3594 29.4782 21.4668 29.4364L20.0898 25.8947ZM24.187 26.4629C22.9534 25.4806 21.3698 25.397 20.0898 25.8947L21.4668 29.4364C21.5658 29.3979 21.654 29.391 21.716 29.3983C21.7735 29.405 21.803 29.4221 21.8198 29.4355L24.187 26.4629ZM25.8976 26.7289C25.5472 27.0752 24.9932 27.1049 24.6077 26.7979L22.2406 29.7706C24.1314 31.2763 26.8494 31.1308 28.5686 29.4318L25.8976 26.7289ZM26.8417 24.8173C27.0923 25.1246 27.0683 25.572 26.7862 25.8507L29.4572 28.5536C31.1323 26.8983 31.275 24.241 29.7867 22.4159L26.8417 24.8173ZM26.1239 19.9805C25.5395 21.4163 25.5745 23.2633 26.734 24.6852L29.679 22.2838C29.5701 22.1503 29.4712 21.8364 29.6435 21.4133L26.1239 19.9805ZM29.7748 17.0428C28.0018 17.2312 26.716 18.4892 26.1586 19.8943L29.6908 21.2956C29.8313 20.9414 30.0672 20.8331 30.1763 20.8215L29.7748 17.0428ZM30.1 16.6812C30.1 16.8671 29.9597 17.0231 29.7748 17.0428L30.1763 20.8215C32.2936 20.5965 33.9 18.8104 33.9 16.6812H30.1ZM29.5587 14.1796C29.8665 14.2123 30.1 14.4719 30.1 14.7814H33.9C33.9 12.5287 32.2004 10.6389 29.9602 10.4009L29.5587 14.1796ZM25.9097 11.6052C26.5022 12.8708 27.726 13.9848 29.3662 14.1591L29.7677 10.3804C29.6914 10.3723 29.4906 10.2918 29.3513 9.99414L25.9097 11.6052ZM26.4015 6.98006C25.2606 8.37914 25.2555 10.2076 25.9097 11.6052L29.3513 9.99414C29.2009 9.67273 29.2879 9.45335 29.3465 9.38152L26.4015 6.98006ZM26.5576 5.68854C26.8393 5.96689 26.8633 6.41372 26.613 6.72061L29.558 9.12207C31.046 7.29735 30.9034 4.64062 29.2287 2.98565L26.5576 5.68854ZM24.2902 4.811C24.726 4.46398 25.3524 4.49751 25.7486 4.88908L28.4197 2.1862C26.6546 0.441937 23.8642 0.292548 21.923 1.83838L24.2902 4.811ZM19.941 6.12432C21.0049 6.51991 22.2856 6.40733 23.2793 5.61601L20.9121 2.64339C21.0642 2.52231 21.2099 2.54195 21.2653 2.56256L19.941 6.12432ZM17.6926 3.29011C17.8425 4.66793 18.8043 5.70165 19.941 6.12432L21.2653 2.56256C21.2986 2.57493 21.3379 2.59868 21.3758 2.64455C21.4162 2.69339 21.4588 2.7737 21.4703 2.87906L17.6926 3.29011ZM15.3284 -1.9C13.0243 -1.9 11.09 -0.164738 10.8408 2.12584L14.6185 2.53689C14.6579 2.17452 14.9639 1.9 15.3284 1.9V-1.9ZM16.9209 1.9C17.2739 1.9 17.5702 2.16586 17.6084 2.51681L21.3861 2.10576C21.1381 -0.173396 19.2135 -1.9 16.9209 -1.9V1.9Z" fill="#676868" mask="url(#path-1-inside-1_724_165)"/>
</svg>
